<svg width="20" height="20" viewBox="0 0 20 20" fill="none" xmlns="http://www.w3.org/2000/svg">
<path d="M10.3125 18.7496C7.90898 18.7496 5.60389 17.7948 3.90435 16.0953C2.2048 14.3957 1.25 12.0906 1.25 9.68711C1.25 6.01523 3.35938 2.72305 6.62539 1.30156C6.7405 1.2514 6.86804 1.23706 6.99141 1.26043C7.11478 1.2838 7.22825 1.34378 7.31704 1.43257C7.40583 1.52136 7.46581 1.63483 7.48918 1.7582C7.51255 1.88157 7.49821 2.00911 7.44805 2.12422C7.07305 2.98516 6.875 4.08789 6.875 5.31211C6.875 9.61992 10.3797 13.1246 14.6875 13.1246C15.9117 13.1246 17.0145 12.9266 17.8754 12.5516C17.9905 12.5014 18.118 12.4871 18.2414 12.5104C18.3648 12.5338 18.4783 12.5938 18.567 12.6826C18.6558 12.7714 18.7158 12.8848 18.7392 13.0082C18.7625 13.1316 18.7482 13.2591 18.698 13.3742C17.2766 16.6402 13.9844 18.7496 10.3125 18.7496Z" fill="white"/>
</svg>
