<svg width="20" height="20" viewBox="0 0 20 20" fill="none" xmlns="http://www.w3.org/2000/svg">
<path d="M10 4.60938C9.77208 4.60938 9.55349 4.51883 9.39233 4.35767C9.23117 4.19651 9.14062 3.97792 9.14062 3.75V1.875C9.14062 1.64708 9.23117 1.42849 9.39233 1.26733C9.55349 1.10617 9.77208 1.01563 10 1.01562C10.2279 1.01563 10.4465 1.10617 10.6077 1.26733C10.7688 1.42849 10.8594 1.64708 10.8594 1.875V3.75C10.8594 3.97792 10.7688 4.19651 10.6077 4.35767C10.4465 4.51883 10.2279 4.60938 10 4.60938ZM10 18.9844C9.77208 18.9844 9.55349 18.8938 9.39233 18.7327C9.23117 18.5715 9.14062 18.3529 9.14062 18.125V16.25C9.14062 16.0221 9.23117 15.8035 9.39233 15.6423C9.55349 15.4812 9.77208 15.3906 10 15.3906C10.2279 15.3906 10.4465 15.4812 10.6077 15.6423C10.7688 15.8035 10.8594 16.0221 10.8594 16.25V18.125C10.8594 18.3529 10.7688 18.5715 10.6077 18.7327C10.4465 18.8938 10.2279 18.9844 10 18.9844ZM14.4195 6.43984C14.2496 6.43982 14.0835 6.38942 13.9422 6.29502C13.8009 6.20061 13.6908 6.06644 13.6257 5.90945C13.5607 5.75247 13.5436 5.57972 13.5767 5.41305C13.6098 5.24637 13.6916 5.09325 13.8117 4.97305L15.1375 3.64727C15.2994 3.48961 15.5168 3.40204 15.7428 3.40353C15.9687 3.40502 16.185 3.49544 16.3448 3.65522C16.5046 3.81499 16.595 4.03127 16.5965 4.25723C16.598 4.48318 16.5104 4.70063 16.3527 4.8625L15.027 6.18828C14.9473 6.26815 14.8526 6.33148 14.7483 6.37465C14.6441 6.41783 14.5324 6.43998 14.4195 6.43984ZM4.25469 16.6047C4.08471 16.6047 3.91856 16.5542 3.77724 16.4598C3.63593 16.3653 3.52579 16.2311 3.46077 16.074C3.39576 15.917 3.37877 15.7442 3.41197 15.5775C3.44516 15.4108 3.52705 15.2577 3.64727 15.1375L4.97305 13.8117C5.05245 13.7302 5.14726 13.6652 5.25197 13.6207C5.35668 13.5761 5.4692 13.5527 5.58301 13.552C5.69681 13.5512 5.80963 13.5731 5.91492 13.6163C6.02021 13.6595 6.11586 13.7232 6.19634 13.8037C6.27681 13.8841 6.3405 13.9798 6.3837 14.0851C6.42691 14.1904 6.44877 14.3032 6.44802 14.417C6.44727 14.5308 6.42393 14.6433 6.37934 14.748C6.33475 14.8527 6.26981 14.9475 6.18828 15.027L4.8625 16.3527C4.78278 16.4327 4.68804 16.4961 4.58374 16.5394C4.47943 16.5826 4.3676 16.6048 4.25469 16.6047ZM18.125 10.8594H16.25C16.0221 10.8594 15.8035 10.7688 15.6423 10.6077C15.4812 10.4465 15.3906 10.2279 15.3906 10C15.3906 9.77208 15.4812 9.55349 15.6423 9.39233C15.8035 9.23117 16.0221 9.14062 16.25 9.14062H18.125C18.3529 9.14062 18.5715 9.23117 18.7327 9.39233C18.8938 9.55349 18.9844 9.77208 18.9844 10C18.9844 10.2279 18.8938 10.4465 18.7327 10.6077C18.5715 10.7688 18.3529 10.8594 18.125 10.8594ZM3.75 10.8594H1.875C1.64708 10.8594 1.42849 10.7688 1.26733 10.6077C1.10617 10.4465 1.01563 10.2279 1.01562 10C1.01562 9.77208 1.10617 9.55349 1.26733 9.39233C1.42849 9.23117 1.64708 9.14062 1.875 9.14062H3.75C3.97792 9.14062 4.19651 9.23117 4.35767 9.39233C4.51883 9.55349 4.60938 9.77208 4.60938 10C4.60938 10.2279 4.51883 10.4465 4.35767 10.6077C4.19651 10.7688 3.97792 10.8594 3.75 10.8594ZM15.7453 16.6047C15.6324 16.6048 15.5206 16.5826 15.4163 16.5394C15.312 16.4961 15.2172 16.4327 15.1375 16.3527L13.8117 15.027C13.6541 14.8651 13.5665 14.6476 13.568 14.4217C13.5695 14.1957 13.6599 13.9794 13.8197 13.8197C13.9794 13.6599 14.1957 13.5695 14.4217 13.568C14.6476 13.5665 14.8651 13.6541 15.027 13.8117L16.3527 15.1375C16.473 15.2577 16.5548 15.4108 16.588 15.5775C16.6212 15.7442 16.6042 15.917 16.5392 16.074C16.4742 16.2311 16.3641 16.3653 16.2228 16.4598C16.0814 16.5542 15.9153 16.6047 15.7453 16.6047ZM5.58047 6.43984C5.46763 6.44006 5.35587 6.41795 5.25161 6.37477C5.14736 6.3316 5.05269 6.26822 4.97305 6.18828L3.64727 4.8625C3.48961 4.70063 3.40204 4.48318 3.40353 4.25723C3.40502 4.03127 3.49544 3.81499 3.65522 3.65522C3.81499 3.49544 4.03127 3.40502 4.25723 3.40353C4.48318 3.40204 4.70063 3.48961 4.8625 3.64727L6.18828 4.97305C6.30839 5.09325 6.39017 5.24637 6.42327 5.41305C6.45638 5.57972 6.43933 5.75247 6.37428 5.90945C6.30922 6.06644 6.19909 6.20061 6.0578 6.29502C5.91651 6.38942 5.7504 6.43982 5.58047 6.43984ZM10 13.9844C9.21196 13.9844 8.44163 13.7507 7.7864 13.3129C7.13117 12.8751 6.62049 12.2528 6.31892 11.5248C6.01735 10.7967 5.93845 9.99558 6.09218 9.22269C6.24592 8.44979 6.6254 7.73985 7.18262 7.18262C7.73985 6.6254 8.44979 6.24592 9.22269 6.09218C9.99558 5.93845 10.7967 6.01735 11.5248 6.31892C12.2528 6.62049 12.8751 7.13117 13.3129 7.7864C13.7507 8.44163 13.9844 9.21196 13.9844 10C13.9831 11.0563 13.563 12.0691 12.816 12.816C12.0691 13.563 11.0563 13.9831 10 13.9844Z" fill="#121212"/>
</svg>
